<?xml version="1.0" encoding="utf-8"?>
<!-- Generator: Adobe Illustrator 28.2.0, SVG Export Plug-In . SVG Version: 6.00 Build 0)  -->
<svg version="1.1" id="Calque_1" xmlns="http://www.w3.org/2000/svg" xmlns:xlink="http://www.w3.org/1999/xlink" x="0px" y="0px"
	 viewBox="0 0 1190.6 841.9" style="enable-background:new 0 0 1190.6 841.9;" xml:space="preserve">
<g>
	<path d="M811,630.9c-1.9-11.7-3.4-24.1-4.5-37c-1.1-13-1.8-26.8-2.1-41.5c-0.3-14.7-0.5-31-0.5-48.8l1-134.6
		c0.3-24.1-1.5-45.8-5.4-65.2c-3.9-19.4-9.7-36.8-17.4-52.1c-7.7-15.3-17.2-28.5-28.6-39.6c-11.4-11.1-24.5-20.2-39.4-27.4
		c-14.9-7.2-31.5-12.6-50-16.2c-18.5-3.6-38.4-5.4-60-5.4c-30.3,0-57.9,4-82.6,12c-24.7,8-46,19.2-64,33.7
		c-18,14.6-32.3,32-42.9,52.3c-10.6,20.3-16.9,42.8-18.7,67.5H493c0.6-14.7,3.4-27.7,8.4-39.1c5-11.4,12.1-20.9,21.3-28.6
		c9.2-7.7,20.5-13.5,33.8-17.6c13.3-4.1,28.5-6.1,45.7-6.1c16.6,0,31.4,2.3,44.6,7c13.1,4.7,24.3,11.9,33.6,21.6
		c9.2,9.7,16.3,22,21.3,37c5,15,7.5,32.7,7.5,53v8.6c-50.8,2.9-96.8,7.6-137.9,14.2c-41.9,6.7-77.6,16.7-107.2,29.8
		c-29.5,13.1-52.3,30-68.2,50.7c-16,20.7-23.9,46.4-23.9,77.4v1c0,22.2,4.6,42.1,13.8,59.6c9.2,17.5,21.8,32.4,37.7,44.6
		c16,12.2,34.6,21.5,55.8,27.9c21.3,6.4,43.9,9.6,68,9.6c20.3,0,39.3-1.7,57-5c17.7-3.3,33.8-8.3,48.3-15.2
		c14.5-6.9,27.4-15.5,38.7-25.8c11.3-10.3,20.8-22.5,28.6-36.6c0.3,7.2,0.6,14.1,1,20.7c0.3,6.6,0.8,12.7,1.4,18.5
		c0.6,5.8,1.4,11.2,2.3,16.2c1,5,1.9,9.7,2.8,14.1h91C815.4,654.2,812.9,642.6,811,630.9z M711.6,455.2c0,18.2-1.7,34.5-5.2,49
		c-3.4,14.6-8.2,27.4-14.3,38.7c-6.1,11.3-13.4,21-22,29.1c-8.6,8.1-18,14.9-28.4,20.2c-10.3,5.3-21.4,9.2-33.3,11.7
		c-11.9,2.5-24.2,3.7-37.1,3.7c-14.7,0-28.1-1.7-40.1-4.9c-12-3.3-22.4-8.1-31-14.3c-8.6-6.3-15.2-13.9-19.9-23
		c-4.7-9.1-7-19.6-7-31.4v-0.9c0-16.9,5.1-31.2,15.2-42.9c10.2-11.7,25.3-21.3,45.5-28.9c20.2-7.5,45.3-13.4,75.5-17.6
		c29.4-4.1,63.5-7.3,102-9.4V455.2z"/>
</g>
</svg>
