<?xml version="1.0" encoding="utf-8"?>
<!-- Generator: Adobe Illustrator 28.2.0, SVG Export Plug-In . SVG Version: 6.00 Build 0)  -->
<svg version="1.1" id="Calque_1" xmlns="http://www.w3.org/2000/svg" xmlns:xlink="http://www.w3.org/1999/xlink" x="0px" y="0px"
	 viewBox="0 0 1649.3 595.9" style="enable-background:new 0 0 1649.3 595.9;" xml:space="preserve">
<g>
	<path d="M301.7,75.9v366.8l4.5-178.4c3.7-13,9.1-24.7,16.5-35.1c7.3-10.4,16.4-19.3,27.3-26.6c10.9-7.3,23.6-13,38.2-17.1
		c14.6-4.1,30.8-6.1,48.8-6.1c21.3,0,40.3,2.6,57,7.9c16.7,5.2,30.9,12.8,42.4,22.7c11.6,9.9,20.4,22,26.4,36.4
		c6.1,14.4,9.1,30.6,9.1,48.5v147.7L659,309.5h310.8v-0.2c-1-14-3.7-26.8-8-38.4c-4.3-11.7-10-22.3-17.1-32.1
		c-7.1-9.7-15.3-18.2-24.7-25.6c-9.4-7.3-19.6-13.5-30.7-18.5c-11.1-5-22.8-8.8-35.3-11.3c-12.5-2.6-25.2-3.9-38.2-3.9
		c-14.3,0-28.2,1.3-41.8,4c-13.6,2.7-26.3,6.6-38.3,11.7c-12,5.2-23,11.5-32.9,19.1c-10,7.6-18.5,16.3-25.7,26.3
		c-7.2,10-12.7,21-16.7,33.2c-4,12.1-6,25.4-6,39.7v0.5c0,14.3,2,27.6,6,39.8c4,12.2,9.6,23.3,16.8,33.2
		c7.2,9.9,15.8,18.6,25.8,26.2s21,13.9,33.1,19.1c12.1,5.2,25,9.1,38.7,11.7c13.7,2.7,27.8,4,42.3,4c18.8,0,36.4-1.8,52.8-5.4
		c16.4-3.6,31-8.8,43.9-15.6c12.9-6.8,23.9-15.1,32.9-25c9.1-9.8,15.8-21,20.1-33.7l39.9-185.6l152.7,250.5l2.7-4.7l-67.9,110.3
		l236-356"/>
</g>
</svg>
