<?xml version="1.0" encoding="utf-8"?>
<!-- Generator: Adobe Illustrator 28.2.0, SVG Export Plug-In . SVG Version: 6.00 Build 0)  -->
<svg version="1.1" id="Calque_1" xmlns="http://www.w3.org/2000/svg" xmlns:xlink="http://www.w3.org/1999/xlink" x="0px" y="0px"
	 viewBox="0 0 1190.6 841.9" style="enable-background:new 0 0 1190.6 841.9;" xml:space="preserve">
<g>
	<path d="M711.5,434.3c0,112.2-44.2,173.3-140.2,173.3c-46.7,0-98-21.2-98-74.5c0-65.9,75.2-89.7,230.7-98.7l-2.2-69.9
		c-106,5.5-150,13.7-216.6,36.2C406.9,427,372,476.2,372,536.5c0,122.6,122.8,142.7,197.5,142.7c87,0,133.3-48.7,150.4-82.6
		c-0.1,18.7,4.4,57.7,7.5,69.5h91C793.9,568.2,804.9,369,804.9,369c0-157.2-86.1-205.9-200.8-205.9c-120.3,0-206.6,76-208.2,165.5
		H493c7.8-75.9,61.2-91.4,109.2-91.4c67.7,0,104.8,34.8,107,118.6C709.6,372.5,711.5,414.7,711.5,434.3z"/>
</g>
</svg>
