<?xml version="1.0" encoding="utf-8"?>
<!-- Generator: Adobe Illustrator 28.2.0, SVG Export Plug-In . SVG Version: 6.00 Build 0)  -->
<svg version="1.1" id="Calque_1" xmlns="http://www.w3.org/2000/svg" xmlns:xlink="http://www.w3.org/1999/xlink" x="0px" y="0px"
	 viewBox="0 0 1190.6 841.9" style="enable-background:new 0 0 1190.6 841.9;" xml:space="preserve">
<path d="M407.1,801.5c-55.8-14.6-103.3-46.7-133.9-89.6c-32.3-45.2-44.7-100.4-35.9-159.5c8.9-60,39.5-123.2,91-187.9
	c88.5-111.1,177.2-117.8,236.1-103.9c45,10.7,88.8,37.4,130.2,79.3c14.7,14.9,29.2,31.8,43.4,50.5c-3.9-58.6-8.2-118.4-12.9-177.3
	c-1.2-14.6-5-40.4-17.4-48.3c-5.9-3.7-25.1-11.3-77.1-0.6c-44.7,9.3-95.5,28-144.6,46.2c-32,11.8-62.2,23-90.3,31.4l-38.6-129.3
	c23.9-7.1,52.1-17.6,82-28.6C555.7,40.9,687.7-8,780.3,51.1c46.9,30,73.6,80.8,79.3,151.2c15.8,195.4,26.6,400.4,32.8,538L759,757.2
	c-10.7-50.9-40.3-140.2-88.7-224.3c-45.9-79.8-95.8-131.2-137-141c-45.7-10.8-86.1,40-99.4,56.6c-36,45.2-57.8,87.9-63.1,123.7
	c-3.7,24.6,0.4,44.7,12.3,61.4c25.9,36.3,88.7,52.5,137.1,35.4c33.5-11.8,62.8-27.5,105.5-69l94,96.8c-51.5,50-96.7,77.5-154.4,99.4
	C514.7,815.3,454.1,813.8,407.1,801.5z"/>
</svg>
