<?xml version="1.0" encoding="utf-8"?>
<!-- Generator: Adobe Illustrator 28.2.0, SVG Export Plug-In . SVG Version: 6.00 Build 0)  -->
<svg version="1.1" id="Calque_1" xmlns="http://www.w3.org/2000/svg" xmlns:xlink="http://www.w3.org/1999/xlink" x="0px" y="0px"
	 viewBox="0 0 595.3 841.9" style="enable-background:new 0 0 595.3 841.9;" xml:space="preserve">
<style type="text/css">
	.st0{fill:none;stroke:#000000;stroke-width:2.6719;stroke-miterlimit:10;}
</style>
<g>
	<path class="st0" d="M88.7,437.5H504v-5.9c-1.1-18.7-4.8-35.8-10.7-51.3s-13.4-29.9-23-42.8S450,313,437.2,303.3
		c-12.8-9.6-26.2-18.2-41.1-24.6c-15-6.9-30.5-11.8-47.6-15c-16.6-3.7-33.7-5.3-51.3-5.3c-19.2,0-37.9,1.6-56.1,5.3
		c-18.2,3.7-35.3,9.1-51.3,15.5c-16,6.9-31,15.5-43.8,25.7c-13.4,10.2-25.1,21.9-34.7,35.3s-17.1,28.3-22.4,44.4
		c-4.8,16-7.5,33.7-6.9,52.9v0.5c0,19.2,2.7,36.9,8,53.4s12.8,31,22.4,44.4s21.4,25.1,34.7,35.3s28.3,18.7,44.4,25.7
		s33.1,12.3,51.8,15.5c18.2,3.7,37.4,5.3,56.6,5.3c25.1,0,48.6-2.7,70.5-6.9c21.9-4.8,41.7-11.8,58.8-20.8
		c17.1-9.1,32.1-20.3,44.4-33.7c12.3-13.4,21.4-28.3,26.7-44.9"/>
</g>
</svg>
